Coordinates
version=1
nRows=11
nColumns=40
inDegrees=yes

Units are S.I. units (second, meters, Newtons, ...)
Angles are in degrees.

endheader
time	pelvis_tilt	pelvis_list	pelvis_rotation	pelvis_tx	pelvis_ty	pelvis_tz	hip_flexion_r	hip_adduction_r	hip_rotation_r	knee_angle_r	knee_angle_r_beta	ankle_angle_r	subtalar_angle_r	mtp_angle_r	hip_flexion_l	hip_adduction_l	hip_rotation_l	knee_angle_l	knee_angle_l_beta	ankle_angle_l	subtalar_angle_l	mtp_angle_l	lumbar_extension	lumbar_bending	lumbar_rotation	arm_flex_r	arm_add_r	arm_rot_r	elbow_flex_r	pro_sup_r	wrist_flex_r	wrist_dev_r	arm_flex_l	arm_add_l	arm_rot_l	elbow_flex_l	pro_sup_l	wrist_flex_l	wrist_dev_l
     41.50000000	     -4.17019152	     -3.97445054	     -1.18564971	      1.05251367	      0.93328353	      0.41308318	     33.48479038	     -6.62297486	     -5.84942388	     71.94491434	     71.94491434	     -3.20437460	    -18.87390731	      8.07003794	     13.63252494	     -3.49042954	     -7.92128077	     21.04252313	     21.04252313	     13.81241758	    -12.97450192	      1.80843291	     -9.65802636	      7.45586774	      3.32685788	      8.72075303	    -12.19654620	    -14.90018947	     48.82995604	     45.00141028	      0.00000000	      0.00000000	     13.04606497	    -15.57514100	      3.53438973	     60.52119839	     46.12083700	      0.00000000	      0.00000000
     41.51121429	     -4.07423903	     -3.92363118	     -1.55171237	      1.05173005	      0.93416803	      0.41260962	     34.70939473	     -6.47770947	     -5.91405080	     70.60799772	     70.60799772	     -2.64029388	    -18.80375860	      7.72015422	     12.30497017	     -3.34708115	     -8.33066986	     19.98195424	     19.98195424	     13.86318465	    -12.76007896	      1.51917747	     -9.88989750	      7.44021720	      3.51583057	      7.62516222	    -12.18974043	    -14.88277756	     44.33811733	     45.20377568	      0.00000000	      0.00000000	     14.53833596	    -16.05881642	      3.13133337	     63.11855521	     46.25495732	      0.00000000	      0.00000000
     41.52242857	     -3.89652350	     -3.90878185	     -1.88603787	      1.05099929	      0.93515065	      0.41215573	     35.66241705	     -6.26085339	     -6.01644275	     68.99764924	     68.99764924	     -2.12813211	    -18.71388099	      7.70552023	     10.86557133	     -3.24355291	     -8.81995109	     18.87237896	     18.87237896	     14.06958805	    -12.20413540	      1.50485509	    -10.26175470	      7.49438080	      4.07364412	      5.60975358	    -12.37004655	    -14.76548144	     42.01311706	     45.28442157	      0.00000000	      0.00000000	     16.45903402	    -16.05383383	      2.51026775	     65.08076823	     46.35596342	      0.00000000	      0.00000000
     41.53364286	     -3.73353828	     -3.93038884	     -2.19281305	      1.05021045	      0.93589564	      0.41180343	     36.48571000	     -5.95199241	     -6.09334996	     67.14522930	     67.14522930	     -1.74049677	    -18.58682350	      7.72259343	      9.52957314	     -3.19031613	     -9.31862090	     17.89711247	     17.89711247	     14.26548896	    -11.61361111	      1.27154039	    -10.63432670	      7.53783076	      4.54778367	      4.10635680	    -12.49762830	    -14.62689950	     38.64837961	     45.41145256	      0.00000000	      0.00000000	     18.25620152	    -16.12535195	      1.87773000	     67.37672784	     46.46555497	      0.00000000	      0.00000000
     41.54485714	     -3.62621396	     -4.01019224	     -2.42749541	      1.04936102	      0.93642875	      0.41140560	     37.17181821	     -5.63651685	     -6.30430201	     64.98202219	     64.98202219	     -1.41995421	    -18.39296417	      7.75790594	      8.30619758	     -3.18933834	     -9.78560811	     16.96947599	     16.96947599	     14.41350384	    -11.02295873	      1.00552484	    -10.92300054	      7.68481888	      4.69849201	      2.92534440	    -12.50640593	    -14.51133100	     35.26937168	     45.54411263	      0.00000000	      0.00000000	     19.84229868	    -16.32383591	      1.21668177	     69.52856300	     46.57179828	      0.00000000	      0.00000000
     41.55607143	     -3.63741638	     -4.10111057	     -2.55096292	      1.04836562	      0.93649474	      0.41110546	     37.81691732	     -5.34349050	     -6.59353460	     62.50441445	     62.50441445	     -1.39378463	    -18.20595150	      7.15354007	      7.36464482	     -3.24943646	    -10.26263854	     16.26124152	     16.26124152	     14.35146345	    -10.36524414	     -0.11988999	    -10.98374547	      7.79740820	      3.21753858	      4.53218034	    -12.02671285	    -14.60463093	     27.20899562	     45.95238796	      0.00000000	      0.00000000	     20.05998716	    -17.51831871	     -0.71604354	     72.87204053	     46.82718689	      0.00000000	      0.00000000
     41.56728571	     -3.63916479	     -4.18841423	     -2.63251202	      1.04739845	      0.93649056	      0.41075587	     38.27536277	     -5.04437456	     -6.84818957	     59.69035312	     59.69035312	     -1.25346720	    -17.80926882	      7.23549130	      6.38823538	     -3.24150661	    -10.46914742	     15.50469992	     15.50469992	     14.58832687	     -9.91722611	     -0.17411754	    -11.14958158	      7.96392740	      3.33682737	      2.75314950	    -12.07503548	    -14.68686155	     25.89791185	     46.01141498	      0.00000000	      0.00000000	     21.77170215	    -17.57580899	     -1.36137130	     74.50700316	     46.91740028	      0.00000000	      0.00000000
     41.57850000	     -3.62616651	     -4.24052259	     -2.68525148	      1.04643624	      0.93630869	      0.41049002	     38.51980040	     -4.78560604	     -7.09794868	     56.50317380	     56.50317380	     -1.18384842	    -17.23937218	      6.99094675	      5.43597284	     -3.23624426	    -10.82163707	     14.82308379	     14.82308379	     14.81294038	     -9.18450535	     -0.44343295	    -11.37201870	      8.09351940	      3.52830488	      1.09159975	    -12.08177996	    -14.80224511	     24.22194655	     46.09721224	      0.00000000	      0.00000000	     23.42658004	    -17.62849979	     -1.99875514	     76.49628193	     47.01497352	      0.00000000	      0.00000000
     41.58971429	     -3.71827008	     -4.29511010	     -2.65646870	      1.04554941	      0.93567457	      0.41031389	     38.66597304	     -4.57791300	     -7.47912560	     52.98330952	     52.98330952	     -1.11679463	    -16.49210951	      6.46352262	      4.67953605	     -3.26209952	    -11.17202372	     14.28464249	     14.28464249	     15.11363886	     -8.41309421	     -0.86381913	    -11.45162111	      8.16407358	      3.37367670	     -0.38495859	    -12.00029282	    -14.97507180	     22.72169238	     46.18632371	      0.00000000	      0.00000000	     24.88147952	    -17.91464727	     -2.57663401	     78.33479285	     47.10495286	      0.00000000	      0.00000000
     41.60092857	     -3.83400971	     -4.29111846	     -2.59546488	      1.04474880	      0.93483434	      0.41019892	     38.47808806	     -4.44158062	     -7.94065991	     48.78284611	     48.78284611	     -2.36285451	    -16.02581330	      2.46078225	      4.00157118	     -3.28743512	    -11.74417533	     13.86021376	     13.86021376	     15.34467285	     -7.27385261	     -1.85647317	    -11.42000347	      8.16125704	      2.50213060	     -0.91839907	    -11.75945799	    -16.29718704	     20.02712209	     46.56704527	      0.00000000	      0.00000000	     25.50417146	    -18.57155522	     -3.83721844	     81.11768420	     47.31610047	      0.00000000	      0.00000000
     41.61214286	     -3.92857706	     -4.25924543	     -2.48808268	      1.04416684	      0.93387302	      0.41008433	     38.16360291	     -4.32738939	     -8.41712169	     44.53620717	     44.53620717	     -2.27397415	    -14.71563320	      2.04728192	      3.25082388	     -3.22904559	    -12.06269859	     13.35884504	     13.35884504	     15.68529191	     -6.42506821	     -2.20093977	    -11.41814648	      8.13934479	      2.47849704	     -2.81007672	    -11.66809165	    -16.73572846	     19.45487071	     46.66074112	      0.00000000	      0.00000000	     27.00369576	    -18.68986605	     -4.05340216	     82.71118343	     47.38905879	      0.00000000	      0.00000000
